<?xml version="1.0" encoding="iso-8859-1"?>
<!-- Generator: Adobe Illustrator 18.0.0, SVG Export Plug-In . SVG Version: 6.00 Build 0)  -->
<!DOCTYPE svg PUBLIC "-//W3C//DTD SVG 1.1//EN" "http://www.w3.org/Graphics/SVG/1.1/DTD/svg11.dtd">
<svg version="1.1" id="Capa_1" xmlns="http://www.w3.org/2000/svg" xmlns:xlink="http://www.w3.org/1999/xlink" x="0px" y="0px"
	 viewBox="0 0 460 460" style="enable-background:new 0 0 460 460;" xml:space="preserve">
<g id="XMLID_1126_">
	<path id="XMLID_1281_" d="M456.884,165.933L234.148,10.986c-2.494-1.734-5.802-1.734-8.296,0L3.116,165.933
		c-2.605,1.812-3.732,5.107-2.782,8.136c0.95,3.029,3.756,5.09,6.93,5.09h21.789v263.894c0,4.011,3.252,7.263,7.263,7.263h67.789
		c4.011,0,7.263-3.252,7.263-7.263V179.158h237.263v263.894c0,4.011,3.252,7.263,7.263,7.263h67.789
		c4.011,0,7.263-3.252,7.263-7.263V179.158h21.789c3.174,0,5.981-2.061,6.93-5.09C460.617,171.039,459.49,167.745,456.884,165.933z
		 M230,25.796l199.577,138.836H30.423L230,25.796z M43.579,435.789v-92h53.263v92H43.579z M96.842,329.263H43.579V179.158h53.263
		V329.263z M363.158,435.789v-92h53.263v92H363.158z M416.421,329.263h-53.263V179.158h53.263V329.263z"/>
	<path id="XMLID_1300_" d="M205.938,149.772c5.907,2.938,12.28,4.179,18.295,4.179c7.542,0,14.521-1.951,19.311-4.955
		c6.939-4.351,21.962-18.38,11.62-54.583c-0.687-2.406-2.564-4.288-4.968-4.983c-2.403-0.694-4.995-0.103-6.86,1.566l-3.836,3.434
		c-0.873-12.704-4.46-28.904-16.313-36.424c-2.984-1.895-6.899-1.363-9.272,1.255c-1.19,1.313-29.105,32.486-26.473,62.427
		C188.559,134.421,195.128,144.396,205.938,149.772z M219.821,75.027c5.911,9.813,5.713,28.22,5.001,35.056
		c-0.317,2.988,1.238,5.863,3.912,7.232c2.675,1.369,5.916,0.951,8.155-1.053l6.776-6.066c1.591,12.728-1.124,22.282-7.84,26.493
		c-5.015,3.144-15.394,4.067-23.419,0.076c-6.286-3.127-9.818-8.627-10.497-16.351C200.42,103.464,212.699,84.475,219.821,75.027z"
		/>
	<path id="XMLID_1301_" d="M193.684,349.116c0,4.011,3.252,7.263,7.263,7.263h58.105c4.011,0,7.263-3.252,7.263-7.263
		c0-4.011-3.252-7.263-7.263-7.263h-58.105C196.936,341.852,193.684,345.104,193.684,349.116z"/>
	<path id="XMLID_1302_" d="M259.053,361.221h-58.105c-4.011,0-7.263,3.252-7.263,7.263c0,4.011,3.252,7.263,7.263,7.263h58.105
		c4.011,0,7.263-3.252,7.263-7.263C266.316,364.473,263.064,361.221,259.053,361.221z"/>
	<path id="XMLID_1303_" d="M171.895,361.221c-1.908,0-3.787,0.775-5.133,2.13c-1.356,1.346-2.13,3.225-2.13,5.133
		c0,1.908,0.775,3.786,2.13,5.132c1.346,1.356,3.225,2.131,5.133,2.131c1.908,0,3.786-0.775,5.132-2.131
		c1.356-1.346,2.131-3.225,2.131-5.132c0-1.908-0.775-3.787-2.131-5.133C175.681,361.995,173.802,361.221,171.895,361.221z"/>
	<path id="XMLID_1304_" d="M288.105,375.747c1.908,0,3.786-0.775,5.132-2.131c1.356-1.346,2.131-3.225,2.131-5.132
		c0-1.917-0.775-3.787-2.131-5.133c-1.346-1.356-3.215-2.13-5.132-2.13c-1.908,0-3.787,0.775-5.133,2.13
		c-1.356,1.346-2.13,3.225-2.13,5.133c0,1.908,0.775,3.786,2.13,5.132C284.318,374.972,286.197,375.747,288.105,375.747z"/>
	<path id="XMLID_1307_" d="M326.842,283.747h-12.105v-2.421c0-14.685-11.947-26.632-26.632-26.632h-31.474v-6.618
		c0-12.371-10.064-22.435-22.435-22.435h-8.393c-12.371,0-22.435,10.064-22.435,22.435v6.618h-31.474
		c-14.685,0-26.632,11.947-26.632,26.632v2.421h-12.105c-4.011,0-7.263,3.252-7.263,7.263v38.737c0,4.011,3.252,7.263,7.263,7.263
		h12.105v49.53c-5.799,3.586-9.684,9.985-9.684,17.291c0,10.225,7.593,18.687,17.432,20.105v6.043
		c0,11.214,9.123,20.337,20.337,20.337s20.337-9.123,20.337-20.337v-5.811h72.631v5.811c0,11.214,9.123,20.337,20.337,20.337
		s20.337-9.123,20.337-20.337v-6.043c9.839-1.417,17.432-9.88,17.432-20.105c0-7.305-3.885-13.704-9.684-17.291v-49.53h12.105
		c4.011,0,7.263-3.252,7.263-7.263V291.01C334.105,286.999,330.853,283.747,326.842,283.747z M300.21,380.589H159.79v-53.263H300.21
		V380.589z M300.21,281.326V312.8h-62.947v-43.579h50.842C294.78,269.221,300.21,274.651,300.21,281.326z M217.895,248.077
		c0-4.361,3.548-7.909,7.909-7.909h8.393c4.361,0,7.909,3.548,7.909,7.909v6.618h-24.21V248.077z M159.79,281.326
		c0-6.675,5.43-12.105,12.105-12.105h50.842V312.8H159.79V281.326z M140.421,322.484v-24.21h4.842v24.21H140.421z M179.158,429.978
		c0,3.204-2.606,5.81-5.811,5.81s-5.811-2.606-5.811-5.81v-5.811h11.621V429.978z M292.463,429.978c0,3.204-2.606,5.81-5.811,5.81
		s-5.811-2.606-5.811-5.81v-5.811h11.621V429.978z M304.084,409.642H155.916c-3.204,0-5.811-2.606-5.811-5.811
		s2.606-5.811,5.811-5.811h148.168c3.204,0,5.811,2.606,5.811,5.811S307.288,409.642,304.084,409.642z M319.579,322.484h-4.842
		v-24.21h4.842V322.484z"/>
</g>
<g>
</g>
<g>
</g>
<g>
</g>
<g>
</g>
<g>
</g>
<g>
</g>
<g>
</g>
<g>
</g>
<g>
</g>
<g>
</g>
<g>
</g>
<g>
</g>
<g>
</g>
<g>
</g>
<g>
</g>
</svg>
